<svg width="17" height="18" viewBox="0 0 17 18" fill="none" xmlns="http://www.w3.org/2000/svg">
<path fill-rule="evenodd" clip-rule="evenodd" d="M9.62332 0.640082C10.0051 0.805803 10.2319 1.20337 10.1803 1.61634L9.562 6.56255H15.25C15.6138 6.56255 15.9447 6.77298 16.099 7.10241C16.2533 7.43183 16.2031 7.82077 15.9702 8.10023L8.47022 17.1002C8.20379 17.4199 7.75847 17.5257 7.37671 17.36C6.99494 17.1943 6.76813 16.7967 6.81975 16.3838L7.43803 11.4376H1.75001C1.38624 11.4376 1.05531 11.2271 0.901021 10.8977C0.746728 10.5683 0.796926 10.1793 1.0298 9.89988L8.5298 0.89988C8.79624 0.58016 9.24156 0.474362 9.62332 0.640082ZM3.75161 9.56255H8.50001C8.76892 9.56255 9.02487 9.67802 9.20284 9.87961C9.3808 10.0812 9.46363 10.3495 9.43027 10.6163L9.07689 13.4434L13.2484 8.43755H8.50001C8.23111 8.43755 7.97515 8.32208 7.79719 8.12049C7.61923 7.9189 7.5364 7.6506 7.56975 7.38377L7.92313 4.55673L3.75161 9.56255Z" fill="#1F3B84"/>
</svg>
