<svg width="21" height="20" viewBox="0 0 21 20" fill="none" xmlns="http://www.w3.org/2000/svg">
<path fill-rule="evenodd" clip-rule="evenodd" d="M10.5 1.5625C11.0178 1.5625 11.4375 1.98223 11.4375 2.5V3.86364C11.4375 4.3814 11.0178 4.80114 10.5 4.80114C9.98223 4.80114 9.5625 4.3814 9.5625 3.86364V2.5C9.5625 1.98223 9.98223 1.5625 10.5 1.5625ZM4.53254 4.03254C4.89866 3.66643 5.49225 3.66643 5.85837 4.03254L6.82655 5.00072C7.19267 5.36684 7.19267 5.96043 6.82655 6.32655C6.46043 6.69267 5.86684 6.69267 5.50072 6.32655L4.53254 5.35837C4.16643 4.99225 4.16643 4.39866 4.53254 4.03254ZM16.4675 4.03254C16.8336 4.39866 16.8336 4.99225 16.4675 5.35837L15.4993 6.32655C15.1332 6.69267 14.5396 6.69267 14.1735 6.32655C13.8073 5.96043 13.8073 5.36684 14.1735 5.00072L15.1416 4.03254C15.5077 3.66643 16.1013 3.66643 16.4675 4.03254ZM10.5 7.52841C9.13498 7.52841 8.02841 8.63498 8.02841 10C8.02841 11.365 9.13498 12.4716 10.5 12.4716C11.865 12.4716 12.9716 11.365 12.9716 10C12.9716 8.63498 11.865 7.52841 10.5 7.52841ZM6.15341 10C6.15341 7.59944 8.09944 5.65341 10.5 5.65341C12.9006 5.65341 14.8466 7.59944 14.8466 10C14.8466 12.4006 12.9006 14.3466 10.5 14.3466C8.09944 14.3466 6.15341 12.4006 6.15341 10ZM2.0625 10C2.0625 9.48223 2.48223 9.0625 3 9.0625H4.36364C4.8814 9.0625 5.30114 9.48223 5.30114 10C5.30114 10.5178 4.8814 10.9375 4.36364 10.9375H3C2.48223 10.9375 2.0625 10.5178 2.0625 10ZM15.6989 10C15.6989 9.48223 16.1186 9.0625 16.6364 9.0625H18C18.5178 9.0625 18.9375 9.48223 18.9375 10C18.9375 10.5178 18.5178 10.9375 18 10.9375H16.6364C16.1186 10.9375 15.6989 10.5178 15.6989 10ZM6.82655 13.6735C7.19267 14.0396 7.19267 14.6332 6.82655 14.9993L5.85837 15.9675C5.49225 16.3336 4.89866 16.3336 4.53254 15.9675C4.16643 15.6013 4.16643 15.0077 4.53254 14.6416L5.50072 13.6735C5.86684 13.3073 6.46043 13.3073 6.82655 13.6735ZM14.1735 13.6735C14.5396 13.3073 15.1332 13.3073 15.4993 13.6735L16.4675 14.6416C16.8336 15.0077 16.8336 15.6013 16.4675 15.9675C16.1013 16.3336 15.5077 16.3336 15.1416 15.9675L14.1735 14.9993C13.8073 14.6332 13.8073 14.0396 14.1735 13.6735ZM10.5 15.1989C11.0178 15.1989 11.4375 15.6186 11.4375 16.1364V17.5C11.4375 18.0178 11.0178 18.4375 10.5 18.4375C9.98223 18.4375 9.5625 18.0178 9.5625 17.5V16.1364C9.5625 15.6186 9.98223 15.1989 10.5 15.1989Z" fill="#1F3B84"/>
</svg>
