<svg width="21" height="20" viewBox="0 0 21 20" fill="none" xmlns="http://www.w3.org/2000/svg">
<path fill-rule="evenodd" clip-rule="evenodd" d="M10.5 3.4375C8.38188 3.4375 6.66479 5.15459 6.66479 7.27273C6.66479 9.39086 8.38188 11.108 10.5 11.108C11.2392 11.108 11.9295 10.8988 12.5151 10.5365C12.5543 10.5066 12.596 10.4796 12.6399 10.456C13.6626 9.76713 14.3352 8.59848 14.3352 7.27273C14.3352 5.15459 12.6182 3.4375 10.5 3.4375ZM14.0874 11.7157C15.3822 10.6689 16.2102 9.06748 16.2102 7.27273C16.2102 4.11906 13.6537 1.5625 10.5 1.5625C7.34635 1.5625 4.78979 4.11906 4.78979 7.27273C4.78979 9.06783 5.61812 10.6695 6.9134 11.7163L6.16159 17.3766C6.11419 17.7334 6.27533 18.0859 6.57621 18.2836C6.87709 18.4812 7.26458 18.4891 7.57327 18.3039L10.5 16.5478L13.4268 18.3039C13.7354 18.4891 14.1229 18.4812 14.4238 18.2836C14.7247 18.086 14.8858 17.7335 14.8385 17.3767L14.0874 11.7157ZM12.3246 12.6852C11.7517 12.8783 11.1381 12.983 10.5 12.983C9.86224 12.983 9.24887 12.8784 8.67613 12.6855L8.27635 15.6954L10.0177 14.6506C10.3146 14.4725 10.6855 14.4725 10.9824 14.6506L12.724 15.6956L12.3246 12.6852Z" fill="#1F3B84"/>
</svg>
